<?xml version="1.0" standalone="no"?>
<!DOCTYPE svg PUBLIC "-//W3C//DTD SVG 20010904//EN"
 "http://www.w3.org/TR/2001/REC-SVG-20010904/DTD/svg10.dtd">
<svg version="1.0" xmlns="http://www.w3.org/2000/svg"
 width="1280.000000pt" height="853.000000pt" viewBox="0 0 1280.000000 853.000000"
 preserveAspectRatio="xMidYMid meet">

<g transform="translate(0.000000,853.000000) scale(0.100000,-0.100000)"
fill="#000000" stroke="none">
<path d="M9030 7165 l0 -105 100 0 100 0 0 105 0 105 -100 0 -100 0 0 -105z"/>
<path d="M4885 6910 c-170 -39 -312 -113 -437 -229 -112 -103 -207 -266 -249
-426 -25 -95 -30 -277 -10 -370 72 -340 312 -590 659 -686 67 -19 111 -22 337
-26 l260 -4 -43 23 c-35 18 -42 27 -40 48 2 14 9 31 16 38 17 19 15 52 -3 52
-12 0 -15 17 -15 93 0 70 -5 103 -19 133 -24 51 -33 111 -18 118 9 3 8 7 -2
14 -11 8 -10 12 5 20 18 10 17 11 -6 20 -14 5 -34 12 -45 15 -13 3 -8 5 15 7
19 1 44 5 55 10 12 5 -37 9 -130 10 -82 0 -169 5 -192 10 -147 34 -244 185
-214 331 15 73 71 145 141 184 l55 30 252 5 c138 3 255 8 259 13 4 4 -11 7
-34 7 -30 0 -42 4 -42 15 0 8 -12 17 -27 21 -53 11 -60 16 -33 23 l25 7 -24
13 c-17 9 -20 16 -12 24 14 14 15 77 1 77 -6 0 -10 55 -10 146 0 136 -1 148
-21 165 -13 11 -18 23 -13 31 12 18 12 31 1 46 -16 20 -342 15 -442 -8z m440
0 c3 -6 -1 -7 -9 -4 -18 7 -21 14 -7 14 6 0 13 -4 16 -10z"/>
<path d="M8560 6804 l0 -44 78 0 c66 0 74 2 55 13 -12 6 -46 26 -77 44 l-56
31 0 -44z"/>
<path d="M8887 6743 c-4 -3 -7 -57 -7 -120 l0 -113 120 0 120 0 0 120 0 120
-113 0 c-63 0 -117 -3 -120 -7z"/>
<path d="M7605 6420 l-90 -6 115 -4 115 -4 -135 -6 c-107 -5 -118 -6 -53 -8
76 -2 81 -3 76 -22 -3 -11 -13 -20 -22 -21 -9 0 -4 -5 12 -11 28 -10 35 -24
15 -30 -8 -3 -11 -21 -9 -51 2 -37 -1 -47 -13 -47 -14 0 -16 -17 -16 -120 0
-113 1 -120 20 -120 28 0 25 -14 -5 -28 -29 -13 -24 -40 9 -47 11 -2 30 -6 41
-8 11 -3 -11 -6 -50 -8 l-70 -3 75 -6 75 -6 -90 -4 c-72 -3 -81 -5 -45 -9 25
-3 -47 -8 -160 -11 -137 -4 -33 -6 312 -8 l516 -2 88 31 c49 17 115 49 149 71
66 45 160 137 206 204 41 61 99 183 106 227 11 71 41 67 -551 65 -292 -1 -571
-5 -621 -8z m138 -577 c-13 -2 -33 -2 -45 0 -13 2 -3 4 22 4 25 0 35 -2 23 -4z"/>
<path d="M7105 6410 c-13 -6 -2 -7 30 -3 28 3 52 7 54 9 9 8 -65 2 -84 -6z"/>
<path d="M6865 6333 c-48 -25 -49 -26 -27 -36 16 -7 26 -7 34 1 8 8 5 9 -13 5
-23 -5 -23 -5 -4 10 14 11 23 12 37 4 21 -14 38 0 18 14 -11 8 -8 9 12 5 15
-3 30 -2 33 4 3 5 2 10 -4 10 -5 0 -15 2 -23 5 -7 2 -35 -8 -63 -22z"/>
<path d="M6937 6299 c7 -7 15 -10 18 -7 3 3 -2 9 -12 12 -14 6 -15 5 -6 -5z"/>
<path d="M6790 6290 c-8 -5 -12 -12 -9 -15 4 -3 12 1 19 10 14 17 11 19 -10 5z"/>
<path d="M6724 6241 c-141 -104 -258 -305 -293 -505 -6 -33 -11 -134 -11 -224
l0 -164 35 -72 c63 -129 79 -209 79 -396 -1 -150 -3 -173 -27 -253 -113 -370
-386 -586 -797 -632 -64 -7 -244 9 -337 31 -35 8 -137 37 -226 65 -148 46
-235 69 -387 101 -30 7 -129 12 -220 12 -133 0 -185 -5 -269 -23 -58 -12 -112
-26 -120 -32 -12 -7 -10 -8 9 -5 77 14 112 17 228 17 224 0 477 -60 717 -171
413 -191 635 -254 890 -253 200 1 340 36 510 128 295 160 496 453 546 795 l11
80 377 0 c226 0 401 4 437 11 133 24 268 115 359 244 51 71 109 188 127 258
23 89 78 82 -656 85 l-646 2 0 163 c0 149 2 167 23 207 12 25 41 58 64 75 45
32 55 50 23 42 -14 -4 -20 0 -20 11 -1 15 -2 15 -13 2 -14 -17 -57 -35 -137
-57 -30 -8 -71 -24 -90 -35 -19 -11 -50 -21 -70 -23 -32 -3 -36 0 -38 21 -1
20 3 24 24 24 25 0 26 1 19 53 -4 28 -11 54 -16 55 -5 2 -8 25 -7 50 l1 47 7
-45 c5 -33 7 -13 8 73 2 111 3 117 23 117 29 0 19 24 -12 28 -60 7 -71 12 -59
27 7 8 21 15 31 15 10 0 21 5 24 10 4 6 -7 10 -25 10 -18 0 -29 4 -25 10 3 6
-1 7 -9 4 -9 -3 -16 -2 -16 4 0 6 6 13 13 15 9 4 9 6 0 6 -6 1 -15 -3 -18 -9
-3 -5 -11 -10 -17 -10 -6 0 -3 9 7 20 25 28 15 25 -31 -9z m83 -348 c-2 -16
-4 -5 -4 22 0 28 2 40 4 28 2 -13 2 -35 0 -50z m33 -178 c0 -2 -10 -10 -22
-16 -21 -11 -22 -11 -9 4 13 16 31 23 31 12z m-100 -69 c0 -2 -8 -10 -17 -17
-16 -13 -17 -12 -4 4 13 16 21 21 21 13z"/>
<path d="M7524 5923 c10 -10 56 -11 56 -1 0 4 -14 8 -32 8 -17 0 -28 -3 -24
-7z"/>
<path d="M7140 5870 c0 -5 4 -10 9 -10 6 0 13 5 16 10 3 6 -1 10 -9 10 -9 0
-16 -4 -16 -10z"/>
<path d="M7172 5860 c-10 -17 -10 -20 4 -20 8 0 12 5 9 10 -3 6 -1 10 4 10 6
0 11 5 11 10 0 17 -14 11 -28 -10z"/>
<path d="M7233 5853 c9 -2 23 -2 30 0 6 3 -1 5 -18 5 -16 0 -22 -2 -12 -5z"/>
<path d="M7288 5853 c7 -3 16 -2 19 1 4 3 -2 6 -13 5 -11 0 -14 -3 -6 -6z"/>
<path d="M6885 5800 c-3 -5 1 -10 10 -10 9 0 13 5 10 10 -3 6 -8 10 -10 10 -2
0 -7 -4 -10 -10z"/>
<path d="M6915 5780 c-3 -5 -17 -10 -31 -10 -13 0 -24 -4 -24 -9 0 -6 9 -8 19
-6 23 4 61 23 61 30 0 9 -19 5 -25 -5z"/>
<path d="M4565 4765 c-243 -53 -442 -226 -534 -465 -17 -44 -31 -84 -31 -89 0
-5 47 6 104 25 347 112 642 93 1136 -76 134 -46 392 -79 485 -62 33 6 40 10
22 11 -16 0 -26 5 -22 11 3 5 -15 7 -47 4 -29 -2 -47 -2 -40 2 6 3 12 12 12
19 0 7 -6 16 -12 19 -10 4 -10 7 -1 12 14 6 6 152 -10 172 -8 10 -7 16 0 20 7
4 12 42 14 87 1 44 7 84 13 88 6 5 -5 7 -25 5 -25 -3 -35 0 -32 8 3 7 20 10
47 7 28 -4 46 -1 51 7 5 8 -10 11 -56 10 -112 -3 -202 19 -489 119 -218 76
-430 100 -585 66z"/>
<path d="M3851 3530 c-131 -61 -148 -224 -31 -285 42 -22 126 -19 177 6 108
52 125 209 30 268 -52 32 -122 36 -176 11z"/>
<path d="M2765 3494 c-192 -38 -340 -138 -402 -271 -93 -200 -21 -389 177
-464 30 -12 141 -43 245 -69 252 -63 295 -84 311 -145 26 -104 -81 -189 -252
-202 -183 -14 -328 64 -349 189 -5 30 -11 38 -23 34 -10 -3 -75 -20 -147 -37
-71 -18 -135 -36 -141 -41 -28 -21 31 -172 95 -241 134 -145 480 -197 773
-116 217 60 355 210 366 398 6 99 -14 172 -63 229 -67 78 -138 108 -405 173
-193 46 -235 61 -272 97 -35 32 -38 89 -7 138 42 68 200 114 324 94 110 -18
181 -72 200 -152 4 -16 13 -28 20 -28 17 0 277 69 283 75 8 8 -18 96 -43 144
-47 95 -157 164 -308 195 -93 20 -284 20 -382 0z"/>
<path d="M7640 3503 l-35 -4 -34 -172 c-18 -95 -42 -210 -52 -257 -10 -47 -29
-139 -43 -205 -13 -66 -43 -206 -66 -312 -23 -106 -51 -247 -64 -313 l-23
-120 142 0 141 0 22 103 c48 224 65 305 77 379 8 42 21 105 29 140 9 34 25
108 36 163 12 55 32 152 46 215 14 63 34 165 45 225 12 61 23 121 26 135 l5
25 -109 1 c-59 0 -124 -1 -143 -3z"/>
<path d="M6461 3443 c-5 -27 -17 -84 -26 -128 -9 -44 -36 -177 -61 -295 -25
-118 -74 -359 -109 -535 -36 -176 -67 -330 -70 -342 l-5 -23 152 0 153 0 49
243 c27 133 53 252 57 265 l9 22 294 0 295 0 10 38 c6 20 11 43 11 51 0 7 7
44 17 82 9 38 14 71 12 74 -3 2 -135 7 -295 11 -159 4 -291 8 -293 10 -5 5 51
291 60 306 3 5 59 12 123 15 82 4 113 9 107 17 -25 33 -71 131 -71 152 0 19
-5 24 -24 24 -14 0 -28 5 -31 10 -3 6 3 10 14 10 25 0 38 20 14 21 -13 1 -11
3 7 9 14 5 -62 8 -182 9 l-206 1 -11 -47z"/>
<path d="M4380 3356 c0 -6 -30 -156 -41 -208 l-11 -48 -84 0 c-46 0 -84 -2
-84 -4 0 -2 -9 -48 -20 -101 -11 -53 -20 -103 -20 -111 0 -11 19 -14 81 -14
l81 0 -7 -42 c-4 -24 -23 -115 -42 -203 -19 -88 -37 -197 -40 -242 -5 -76 -4
-87 22 -138 29 -60 67 -91 145 -121 35 -14 74 -18 175 -17 72 1 150 5 175 10
l44 8 21 113 c12 62 20 114 18 115 -1 2 -33 -1 -70 -6 -142 -19 -215 1 -227
62 -3 14 13 123 37 241 l43 215 162 3 c89 1 162 4 162 5 0 1 9 49 20 107 11
58 20 108 20 112 0 5 -70 8 -155 8 -126 0 -155 3 -155 14 0 8 9 58 20 111 31
149 44 135 -125 135 -80 0 -145 -2 -145 -4z"/>
<path d="M5473 3110 c-315 -46 -553 -323 -529 -617 18 -231 174 -368 452 -398
74 -8 204 9 299 39 78 25 169 82 229 145 l40 41 -108 50 c-59 27 -109 50 -111
50 -3 0 -25 -15 -49 -34 -68 -52 -132 -69 -235 -64 -75 3 -94 8 -133 32 -55
36 -85 78 -94 134 l-7 42 406 0 c225 0 408 4 411 9 16 25 24 151 15 216 -37
260 -270 401 -586 355z m211 -235 c50 -25 93 -79 101 -127 l7 -38 -261 0
c-143 0 -261 3 -261 8 1 4 6 16 13 28 36 62 98 113 167 137 62 23 182 18 234
-8z"/>
<path d="M8413 3111 c-273 -44 -489 -236 -534 -476 -14 -73 -6 -204 15 -265
36 -102 146 -203 266 -244 70 -24 267 -33 354 -16 226 44 402 189 472 388 93
267 -22 514 -274 592 -72 22 -222 33 -299 21z m216 -259 c42 -21 60 -37 79
-72 21 -40 23 -55 20 -130 -4 -66 -10 -96 -30 -135 -35 -67 -91 -122 -158
-154 -47 -22 -69 -26 -145 -26 -105 0 -150 18 -199 79 -30 36 -31 42 -31 134
0 84 3 104 25 147 83 164 281 235 439 157z"/>
<path d="M3716 3092 c-5 -8 -196 -949 -196 -965 0 -4 66 -6 148 -5 l147 3 41
205 c23 113 67 329 98 481 31 152 56 279 56 283 0 9 -288 7 -294 -2z"/>
<path d="M9168 3092 c-21 -2 -38 -7 -38 -12 0 -5 9 -80 21 -167 59 -459 99
-769 99 -780 0 -10 37 -13 153 -13 l152 1 25 53 c54 114 285 556 291 556 3 0
9 -30 12 -67 7 -68 12 -116 45 -393 l17 -145 152 -3 153 -3 50 98 c27 54 70
136 96 183 25 47 107 198 181 335 75 138 149 274 165 303 l29 52 -154 0 -154
0 -158 -322 -159 -323 -7 45 c-4 25 -18 170 -30 322 l-22 277 -136 3 c-90 2
-138 -1 -145 -8 -6 -6 -81 -151 -166 -323 -85 -171 -158 -311 -161 -311 -3 0
-11 75 -17 168 -7 92 -17 235 -24 319 l-11 152 -111 3 c-61 2 -128 2 -148 0z"/>
<path d="M8913 1813 c-3 -10 -8 -21 -10 -25 -2 -5 11 -7 29 -7 18 1 25 3 16 6
-10 2 -18 11 -18 18 0 7 8 16 18 18 12 4 11 5 -6 6 -13 1 -25 -6 -29 -16z"/>
<path d="M8627 1763 c-12 -11 -8 -23 8 -23 8 0 15 7 15 15 0 16 -12 20 -23 8z"/>
<path d="M4178 1658 l-3 -103 -34 -3 c-42 -4 -51 8 -51 77 0 44 -3 52 -16 47
-9 -3 -27 -6 -40 -6 -32 0 -64 -34 -64 -68 0 -39 17 -52 67 -52 24 0 43 -5 43
-10 0 -7 22 -10 58 -8 l57 3 3 113 c2 70 -1 112 -7 112 -6 0 -11 -43 -13 -102z
m-110 -45 c3 -28 -1 -33 -23 -39 -46 -11 -71 28 -39 61 27 27 58 15 62 -22z"/>
<path d="M5170 1639 c0 -66 -4 -129 -10 -139 -13 -24 -57 -34 -92 -19 -25 10
-28 16 -28 60 0 48 -12 64 -24 33 -23 -61 16 -124 78 -124 52 0 86 19 93 51 5
27 7 28 82 29 92 1 115 1 164 0 21 -1 45 4 53 11 18 15 20 123 2 116 -8 -2
-13 -22 -13 -53 l0 -49 -45 0 c-43 0 -45 1 -48 32 -3 33 -41 73 -68 73 -23 0
-16 13 23 47 21 17 35 34 31 38 -9 10 -108 -65 -108 -82 0 -7 18 -17 40 -23
43 -12 65 -39 55 -70 -6 -18 -16 -20 -80 -20 -57 0 -74 3 -79 16 -3 9 -6 56
-6 105 0 53 -4 89 -10 89 -6 0 -10 -47 -10 -121z"/>
<path d="M5928 1658 l-3 -103 -79 -3 c-88 -3 -96 1 -96 56 0 41 -16 42 -24 0
-4 -20 -1 -39 9 -55 13 -20 24 -23 78 -25 34 0 69 0 77 0 16 2 68 2 110 1 14
-1 39 0 55 1 17 1 90 1 164 0 88 0 138 3 147 11 16 13 20 119 4 119 -5 0 -10
-18 -10 -39 0 -62 -7 -71 -55 -71 l-43 0 5 38 c6 47 -13 73 -54 74 -49 2 -66
-18 -60 -70 l5 -43 -37 3 c-35 3 -36 4 -41 52 -7 69 -28 72 -32 4 l-3 -53 -40
0 -40 0 -3 103 c-2 80 -6 102 -17 102 -11 0 -15 -22 -17 -102z m318 -43 c11
-43 -34 -73 -64 -43 -27 27 -6 68 35 68 16 0 24 -7 29 -25z"/>
<path d="M6580 1654 l0 -105 -37 3 -38 3 -3 53 c-2 37 -7 52 -17 52 -11 0 -15
-20 -17 -87 -3 -80 -5 -89 -25 -98 -28 -12 -30 -25 -5 -25 24 0 52 31 52 57 0
21 -12 20 260 24 14 0 43 0 64 -1 22 -1 43 4 47 12 12 18 11 118 0 118 -6 0
-11 -24 -13 -52 l-3 -53 -40 0 c-38 0 -40 1 -46 38 -3 21 -13 46 -22 55 -24
23 -83 19 -113 -9 l-24 -22 0 71 c0 41 -4 72 -10 72 -6 0 -10 -42 -10 -106z
m154 -46 c15 -42 -5 -58 -75 -58 -70 0 -76 14 -29 61 39 40 90 38 104 -3z"/>
<path d="M7300 1667 c0 -59 -4 -97 -12 -105 -7 -7 -41 -12 -85 -12 -63 0 -74
3 -83 20 -6 12 -10 29 -8 39 2 10 -1 20 -7 22 -15 6 -18 -70 -4 -87 11 -14
128 -19 294 -13 22 1 99 2 170 3 l130 1 3 49 c2 35 -2 53 -14 67 -22 24 -66
24 -87 1 -20 -22 -22 -73 -5 -90 9 -9 -1 -12 -45 -12 -61 0 -65 4 -42 34 38
50 1 95 -68 82 -54 -10 -63 -28 -32 -64 14 -16 25 -35 25 -41 0 -15 -83 -14
-98 1 -8 8 -12 46 -12 105 0 55 -4 93 -10 93 -6 0 -10 -38 -10 -93z m354 -23
c11 -4 16 -19 16 -45 0 -32 -4 -39 -19 -39 -43 0 -68 59 -33 79 21 13 17 12
36 5z m-161 -19 c3 -7 -2 -24 -12 -37 l-18 -22 -26 29 c-15 17 -27 33 -27 38
0 14 78 7 83 -8z"/>
<path d="M8925 1750 c-3 -5 -5 -57 -4 -115 1 -82 4 -105 15 -105 11 0 14 24
14 115 0 104 -7 134 -25 105z"/>
<path d="M4006 1743 c-11 -11 -6 -23 9 -23 8 0 15 4 15 9 0 13 -16 22 -24 14z"/>
<path d="M4046 1742 c-3 -6 -1 -14 5 -17 15 -10 25 3 12 16 -7 7 -13 7 -17 1z"/>
<path d="M7607 1734 c-8 -8 1 -24 14 -24 5 0 9 7 9 15 0 15 -12 20 -23 9z"/>
<path d="M7656 1733 c-11 -11 -6 -23 9 -23 8 0 15 4 15 9 0 13 -16 22 -24 14z"/>
<path d="M6026 1722 c-3 -6 -1 -14 5 -17 15 -10 25 3 12 16 -7 7 -13 7 -17 1z"/>
<path d="M6077 1723 c-12 -11 -8 -23 8 -23 8 0 15 7 15 15 0 16 -12 20 -23 8z"/>
<path d="M6172 1719 c2 -6 8 -10 13 -10 5 0 11 4 13 10 2 6 -4 11 -13 11 -9 0
-15 -5 -13 -11z"/>
<path d="M6222 1719 c2 -6 8 -10 13 -10 5 0 11 4 13 10 2 6 -4 11 -13 11 -9 0
-15 -5 -13 -11z"/>
<path d="M8606 1723 c-11 -11 -6 -23 9 -23 8 0 15 4 15 9 0 13 -16 22 -24 14z"/>
<path d="M8647 1724 c-8 -8 1 -24 14 -24 5 0 9 7 9 15 0 15 -12 20 -23 9z"/>
<path d="M8840 1715 c0 -9 5 -15 11 -13 6 2 11 8 11 13 0 5 -5 11 -11 13 -6 2
-11 -4 -11 -13z"/>
<path d="M5832 1665 c4 -16 0 -25 -11 -28 -9 -3 -1 -5 17 -6 33 -1 44 12 17
23 -20 7 -19 24 3 29 12 3 10 5 -7 6 -20 1 -23 -3 -19 -24z"/>
<path d="M7195 1680 c-4 -6 -2 -17 5 -25 9 -10 7 -14 -7 -18 -12 -3 -8 -5 10
-6 29 -1 34 8 15 27 -10 10 -10 15 2 22 13 8 13 10 -2 10 -9 0 -20 -5 -23 -10z"/>
<path d="M4289 1656 c-34 -17 -47 -60 -28 -94 11 -21 24 -28 52 -30 33 -3 38
-6 35 -25 -2 -17 -11 -23 -40 -25 -25 -2 -38 -8 -38 -18 0 -32 84 -7 102 31 9
19 19 25 44 25 28 0 33 -4 36 -27 2 -17 13 -33 31 -43 24 -13 30 -13 55 0 20
12 27 24 27 45 1 29 2 30 60 36 33 3 70 2 82 -2 13 -5 30 -6 39 -2 8 3 39 6
67 7 l52 1 3 63 c2 38 -1 62 -8 62 -5 0 -10 -22 -10 -50 0 -38 -4 -52 -16 -57
-27 -10 -49 11 -52 51 -4 45 -22 48 -22 4 0 -44 -12 -60 -41 -56 -20 2 -25 10
-27 41 -5 53 -32 51 -32 -3 l0 -40 -56 0 c-50 0 -55 2 -48 18 13 30 8 75 -12
89 -46 34 -94 -1 -94 -69 0 -37 -1 -38 -35 -38 -31 0 -35 3 -35 28 0 48 -11
71 -40 80 -19 7 -35 6 -51 -2z m59 -63 c3 -42 2 -43 -27 -43 -38 0 -55 27 -41
65 8 21 16 26 38 23 24 -3 27 -7 30 -45z m190 12 c4 -31 -18 -55 -50 -55 -21
0 -25 39 -7 71 16 31 53 21 57 -16z m-10 -87 c7 -7 12 -20 12 -30 0 -23 -58
-26 -66 -3 -14 37 26 61 54 33z"/>
<path d="M7793 1662 c-30 -5 -45 -26 -46 -66 -1 -45 18 -66 59 -66 18 0 36 -5
39 -10 12 -19 -16 -40 -51 -40 -24 0 -34 -5 -34 -15 0 -36 94 -6 108 34 8 23
17 29 53 34 24 3 51 1 61 -4 24 -13 66 -1 78 21 27 51 -2 110 -54 110 -40 0
-57 -18 -65 -68 -6 -33 -10 -37 -39 -40 -31 -3 -32 -2 -32 35 0 57 -27 84 -77
75z m45 -34 c7 -7 12 -27 12 -45 0 -29 -3 -33 -28 -33 -33 0 -52 16 -52 45 0
25 18 45 40 45 9 0 21 -5 28 -12z m191 -2 c7 -8 11 -27 9 -43 -3 -24 -8 -28
-33 -28 -25 0 -30 4 -33 28 -4 30 12 57 33 57 7 0 18 -6 24 -14z"/>
<path d="M8202 1658 c-7 -7 -12 -20 -12 -30 0 -14 7 -18 33 -17 23 1 26 3 10
6 -26 5 -32 33 -7 33 8 0 12 5 9 10 -8 13 -18 13 -33 -2z"/>
<path d="M8718 1608 c-3 -47 -6 -53 -27 -56 -29 -4 -41 12 -41 56 0 17 -4 32
-10 32 -5 0 -10 -15 -10 -32 0 -44 -12 -60 -41 -56 -20 2 -25 10 -27 41 -5 54
-32 51 -32 -4 l0 -41 -62 5 c-35 3 -75 8 -90 12 -37 10 -35 -6 2 -27 57 -32
28 -68 -54 -68 -61 0 -91 27 -81 76 5 27 3 34 -10 34 -11 0 -15 -11 -15 -45 0
-55 25 -85 73 -86 98 -3 133 11 139 55 4 25 0 24 243 26 104 1 174 5 182 12
19 16 18 118 -2 118 -12 0 -15 -13 -15 -56 l0 -55 -42 3 -43 3 -5 49 c-7 69
-28 72 -32 4z"/>
<path d="M2756 1601 c10 -11 121 -13 592 -12 207 1 322 5 322 11 0 7 -161 10
-462 10 -286 0 -458 -4 -452 -9z"/>
<path d="M9180 1600 c0 -17 896 -16 915 1 5 5 -177 9 -453 9 -301 0 -462 -3
-462 -10z"/>
<path d="M3900 1540 c0 -13 5 -20 13 -17 6 2 12 10 12 17 0 7 -6 15 -12 18 -8
2 -13 -5 -13 -18z"/>
<path d="M5655 1550 c-8 -13 4 -32 16 -25 12 8 12 35 0 35 -6 0 -13 -4 -16
-10z"/>
<path d="M7022 1546 c1 -10 8 -17 13 -17 15 1 12 24 -3 29 -9 3 -13 -2 -10
-12z"/>
<path d="M5466 1483 c-11 -11 -6 -23 9 -23 8 0 15 4 15 9 0 13 -16 22 -24 14z"/>
<path d="M6317 1484 c-8 -8 1 -24 14 -24 5 0 9 7 9 15 0 15 -12 20 -23 9z"/>
<path d="M6360 1476 c0 -9 7 -16 16 -16 17 0 14 22 -4 28 -7 2 -12 -3 -12 -12z"/>
<path d="M6836 1483 c-11 -11 -6 -23 9 -23 8 0 15 4 15 9 0 13 -16 22 -24 14z"/>
</g>
</svg>
